<svg viewBox="0 0 800 800" xmlns="http://www.w3.org/2000/svg"><path d="M639.0900110048649,262.3936896796337 L659.4220642820733,275.06983309486935 M659.4220642820733,275.06983309486935 L677.7540077849917,288.7361618568933 M677.7540077849917,288.7361618568933 L693.9409992664193,303.2887835760021 M693.9409992664193,303.2887835760021 L707.8540606791262,318.61668589010156 M707.8540606791262,318.61668589010156 L719.3811835214797,334.60249847548863 M719.3811835214797,334.60249847548863 L728.4282913850936,351.1233741073782 M728.4282913850936,351.1233741073782 L734.920035902097,368.0518554275628 M734.920035902097,368.0518554275628 L738.8006598571476,385.2567615189906 M738.8006598571476,385.2567615189906 L740.0344256878486,402.60429509219017 M740.0344256878486,402.60429509219017 L738.6061833229901,419.9589284562552 M738.6061833229901,419.9589284562552 L734.5215822254208,437.1845343790811 M734.5215822254208,437.1845343790811 L727.8072554410753,454.1454401116087 M727.8072554410753,454.1454401116087 L718.5107590980044,470.70751530308615 M718.5107590980044,470.70751530308615 L706.7003607673282,486.73925580626127 M706.7003607673282,486.73925580626127 L692.4646013052215,502.1128803983086 M692.4646013052215,502.1128803983086 L675.9118236877898,516.7053862146868 M675.9118236877898,516.7053862146868 L657.1693537691801,530.3996333926812 M657.1693537691801,530.3996333926812 L636.3825474273431,543.0852845815393 M636.3825474273431,543.0852845815393 L613.7138308570654,554.6598641260523 M613.7138308570654,554.6598641260523 L589.3412460919958,565.029548994484 M589.3412460919958,565.029548994484 L563.4572362982358,574.1101194744706 M563.4572362982358,574.1101194744706 L536.2669547458715,581.8276220416926 M536.2669547458715,581.8276220416926 L507.98660766387053,588.1190899616806 M507.98660766387053,588.1190899616806 L478.8417034604838,592.9331140241613 M478.8417034604838,592.9331140241613 L449.0651161816185,596.2303161646287 M449.0651161816185,596.2303161646287 L418.8951002534454,597.9836678726219 M418.8951002534454,597.9836678726219 L388.5732632258085,598.1788231519581 M388.5732632258085,598.1788231519581 L358.3425353026266,596.8141658844754 M358.3425353026266,596.8141658844754 L328.4450881094942,593.9008826483112 M328.4450881094942,593.9008826483112 L299.12019146034146,589.4628457379072 M299.12019146034146,589.4628457379072 L270.60224692458434,583.5363877651612 M270.60224692458434,583.5363877651612 L243.11877895059865,576.1699344079243 M243.11877895059865,576.1699344079243 L216.8885142754401,567.4236130162919 M216.8885142754401,567.4236130162919 L192.11950509196137,557.3687027843691 M192.11950509196137,557.3687027843691 L169.00753327354226,546.0869146994926 M169.00753327354226,546.0869146994926 L147.73439561344983,533.6697437506086 M147.73439561344983,533.6697437506086 L128.46651793113688,520.2175970732819 M128.46651793113688,520.2175970732819 L111.3536711402453,505.83891423992634 M111.3536711402453,505.83891423992634 L96.52774077128169,490.6492555603648 M96.52774077128169,490.6492555603648 L84.10191376350201,474.770231812541 M84.10191376350201,474.770231812541 L74.16976069821209,458.32853563504034 M74.16976069821209,458.32853563504034 L66.8046221928737,441.4548457806388 M66.8046221928737,441.4548457806388 L62.05926592766974,424.28274147865403 M62.05926592766974,424.28274147865403 L59.96557431215126,406.94759999733253 M59.96557431215126,406.94759999733253 L60.534453156367306,389.5855507445549 M60.534453156367306,389.5855507445549 L63.75589642210076,372.33235707085504 M63.75589642210076,372.33235707085504 L69.59933557789827,355.3223588851029 M69.59933557789827,355.3223588851029 L78.01390003620838,338.6874648294884 M78.01390003620838,338.6874648294884 L88.92911386054675,322.5561612134473 M88.92911386054675,322.5561612134473 L102.2555136151438,307.0525545874037 M102.2555136151438,307.0525545874037 L117.88547487728084,292.2954457367097 M117.88547487728084,292.2954457367097 L135.694147717134,278.39750711981975 M135.694147717134,278.39750711981975 L155.54059383104473,265.4645051014513 M155.54059383104473,265.4645051014513 L177.26877622688627,253.59449027270273 M177.26877622688627,253.59449027270273 L200.70899243031798,242.8772389214653 M200.70899243031798,242.8772389214653 L225.6789995515739,233.39353702396315 M225.6789995515739,233.39353702396315 L251.98556446005213,225.2147179182031 M251.98556446005213,225.2147179182031 L279.4257891444774,218.4021763151816 M279.4257891444774,218.4021763151816 L307.78867125196297,213.0069273214791 M307.78867125196297,213.0069273214791 L336.8566114124086,209.06933247246906 M336.8566114124086,209.06933247246906 L366.4069983347325,206.61881386233134 M366.4069983347325,206.61881386233134 L396.2137875902755,205.67366770463497 M396.2137875902755,205.67366770463497 L426.04911211520823,206.24093650443012 M426.04911211520823,206.24093650443012 L455.6848670987476,208.31639613283093 M455.6848670987476,208.31639613283093 L484.89446695216236,211.88453749975685 M484.89446695216236,211.88453749975685 L513.4542259703928,216.9187359794153 M513.4542259703928,216.9187359794153 L541.1451695026306,223.38132790140605 M541.1451695026306,223.38132790140605 L567.7545180857505,231.22392937158455 M567.7545180857505,231.22392937158455 L593.0771904854746,240.38771529805177 M593.0771904854746,240.38771529805177 L616.9173856619861,250.80379679495357 M616.9173856619861,250.80379679495357 L639.0900110048649,262.3936896796337 M639.0900110048649,262.3936896796337 L639.0107543679856,279.0041488310112 M639.0107543679856,279.0041488310112 L616.8455109769045,267.41034901601734 M616.8455109769045,267.41034901601734 L593.0132400232171,256.99075321959685 M593.0132400232171,256.99075321959685 L567.6989731003666,247.82387311343214 M567.6989731003666,247.82387311343214 L541.0984470535836,239.9786217856412 M541.0984470535836,239.9786217856412 L513.4166761876754,233.5138450498957 M513.4166761876754,233.5138450498957 L484.8663707845189,228.47794388229278 M484.8663707845189,228.47794388229278 L455.66643450976505,224.9085952738754 M455.66643450976505,224.9085952738754 L426.04048071363553,222.8324332801722 M426.04048071363553,222.8324332801722 L396.21502179678197,222.26497248847494 M396.21502179678197,222.26497248847494 L366.4180889390522,223.21043852575056 M366.4180889390522,223.21043852575056 L336.87747564342754,225.66178638955049 M336.87747564342754,225.66178638955049 L307.8191533041168,229.60071338204662 M307.8191533041168,229.60071338204662 L279.46566117125036,234.99778699211893 M279.46566117125036,234.99778699211893 L252.03452802841514,241.81263141514108 M252.03452802841514,241.81263141514108 L225.73668756573292,249.9942135428124 M225.73668756573292,249.9942135428124 L200.7749715068168,259.4811170509645 M200.7749715068168,259.4811170509645 L177.3425495483232,270.2019835587833 M177.3425495483232,270.2019835587833 L155.62160441124988,282.0759988179588 M155.62160441124988,282.0759988179588 L135.78178216366518,295.0133552339583 M135.78178216366518,295.0133552339583 L117.97906752329618,308.915968155847 M117.97906752329618,308.915968155847 L102.35435113469521,323.67803463410826 M102.35435113469521,323.67803463410826 L89.0324402334146,339.18684341198826 M89.0324402334146,339.18684341198826 L78.12092192297757,355.32355299045213 M78.12092192297757,355.32355299045213 L69.7092280496064,371.9640144994931 M69.7092280496064,371.9640144994931 L63.86780901862346,388.9796980435558 M63.86780901862346,388.9796980435558 L60.647516212733876,406.2386504718554 M60.647516212733876,406.2386504718554 L60.07890558591794,423.60648679315176 M60.07890558591794,423.60648679315176 L62.171977386894866,440.9473983478558 M62.171977386894866,440.9473983478558 L66.91582699703196,458.12521054832905 M66.91582699703196,458.12521054832905 L74.27858027772459,475.0045014441753 M74.27858027772459,475.0045014441753 L84.2074849433389,491.45164795796916 M84.2074849433389,491.45164795796916 L96.62922286062314,507.3359286705763 M96.62922286062314,507.3359286705763 L111.45025297123743,522.5306097938883 M111.45025297123743,522.5306097938883 L128.5574247476427,536.9140412493925 M128.5574247476427,536.9140412493925 L147.81889569697768,550.3706255604375 M147.81889569697768,550.3706255604375 L169.0849443297602,562.7918884357305 M169.0849443297602,562.7918884357305 L192.18920024442195,574.0773907277271 M192.18920024442195,574.0773907277271 L216.94992763473675,584.13560838937 M216.94992763473675,584.13560838937 L243.17141071077003,592.8848045733946 M243.17141071077003,592.8848045733946 L270.64566786214874,600.2536775960045 M270.64566786214874,600.2536775960045 L299.1540468630739,606.1820811863286 M299.1540468630739,606.1820811863286 L328.46910102838666,610.6215744615592 M328.46910102838666,610.6215744615592 L358.3565091018771,613.53581342094 M358.3565091018771,613.53581342094 L388.57708339290247,614.9009182960106 M388.57708339290247,614.9009182960106 L418.88873547737586,614.7056990087876 M418.88873547737586,614.7056990087876 L449.04861863620175,612.9517721832026 M449.04861863620175,612.9517721832026 L478.8152083126351,609.6534883039321 M478.8152083126351,609.6534883039321 L507.9503318254936,604.8378843460009 M507.9503318254936,604.8378843460009 L536.2211948748252,598.5443507217719 M536.2211948748252,598.5443507217719 L563.4023660691348,590.8243127916344 M563.4023660691348,590.8243127916344 L589.2777127621873,581.7407571166091 M589.2777127621873,581.7407571166091 L613.6421512009845,571.3676605713906 M613.6421512009845,571.3676605713906 L636.3033030831677,559.7892695445153 M636.3033030831677,559.7892695445153 L657.0831859994976,547.0994368931988 M657.0831859994976,547.0994368931988 L675.8194277286275,533.400670977268 M675.8194277286275,533.400670977268 L692.3667202365452,518.8033445133071 M692.3667202365452,518.8033445133071 L706.5977790853171,503.42463508286096 M706.5977790853171,503.42463508286096 L718.4042960037721,487.38758535035106 M718.4042960037721,487.38758535035106 L727.697757902801,470.82001809517527 M727.697757902801,470.82001809517527 L734.4099179402708,453.8534804575595 M734.4099179402708,453.8534804575595 L738.4932335982282,436.6221468771769 M738.4932335982282,436.6221468771769 L739.9210783229062,419.261734944604 M739.9210783229062,419.261734944604 L738.6878020809993,401.9084171337067 M738.6878020809993,401.9084171337067 L734.8085474488789,384.6977664284812 M734.8085474488789,384.6977664284812 L728.3190377168439,367.76362508037596 M728.3190377168439,367.76362508037596 L719.2750093122918,351.23721832906807 M719.2750093122918,351.23721832906807 L707.7517835101273,335.24604682680285 M707.7517835101273,335.24604682680285 L693.8434036679937,319.91299974187996 M693.8434036679937,319.91299974187996 L677.6618395949527,305.3554876702356 M677.6618395949527,305.3554876702356 L659.3360253649669,291.6845612447834 M659.3360253649669,291.6845612447834 L639.0107543679856,279.0041488310112 M399.9463186606647,303.64494717323157 L280.5064648124106,234.96874504283323 M231.61562742654223,400.4326792700188 L399.9463186606647,303.64494717323157 M112.17886227467164,331.22197355174563 L231.61562742654223,400.4326792700188 M280.5064648124106,234.96874504283323 L112.17886227467164,331.22197355174563 M399.9463186606647,442.143993277256 L327.8045938460408,400.4326792700188 M327.5632902732413,483.9948255608023 L399.9463186606647,442.143993277256 M327.8045938460408,400.4326792700188 L255.42196834748563,442.143993277256 M255.42196834748563,442.143993277256 L327.5632902732413,483.9948255608023 M438.42190522846414,400.4326792700189 L399.9463186606647,378.24345192589277 M399.9463186606647,422.6613936164256 L438.42190522846414,400.4326792700189 M399.9463186606647,378.24345192589277 L361.47073209286526,400.4326792700188 M361.47073209286526,400.4326792700188 L399.9463186606647,422.6613936164256 M727.4254919054438,433.79059136891897 L582.3405259066697,350.56228622918246 M458.0991240895574,590.6461101123227 L727.4254919054438,433.79059136891897 M582.3405259066697,350.56228622918246 L313.009140005586,506.37255883374837 M313.009140005586,506.37255883374837 L458.0991240895574,590.6461101123227 M399.9463186606647,309.18761909596856 L280.51964801923714,240.5037027717582 M280.51964801923714,240.5037027717582 L280.5064648124106,234.96874504283323 M399.9463186606647,309.18761909596856 L399.9463186606647,303.64494717323157 M231.63433083667942,405.98615183555575 L399.9463186606647,309.18761909596856 M231.63433083667942,405.98615183555575 L231.61562742654223,400.4326792700188 M112.21074786540692,336.7677313130255 L231.63433083667942,405.98615183555575 M112.21074786540692,336.7677313130255 L112.17886227467164,331.22197355174563 M280.51964801923714,240.5037027717582 L112.21074786540692,336.7677313130255 M399.9463186606647,447.7020947548103 L327.8126095932424,405.98615183555575 M327.8126095932424,405.98615183555575 L327.8045938460408,400.4326792700188 M399.9463186606647,447.7020947548103 L399.9463186606647,442.143993277256 M327.5713597301407,489.55755587780817 L399.9463186606647,447.7020947548103 M327.5713597301407,489.55755587780817 L327.5632902732413,483.9948255608023 M327.8126095932424,405.98615183555575 L255.43805341708088,447.7020947548103 M255.43805341708088,447.7020947548103 L255.42196834748563,442.143993277256 M255.43805341708088,447.7020947548103 L327.5713597301407,489.55755587780817 M438.4176301632899,405.98615183555586 L399.9463186606647,383.79445573552607 M399.9463186606647,383.79445573552607 L399.9463186606647,378.24345192589277 M438.4176301632899,405.98615183555586 L438.42190522846414,400.4326792700189 M399.9463186606647,428.21733493932214 L438.4176301632899,405.98615183555586 M399.9463186606647,428.21733493932214 L399.9463186606647,422.6613936164256 M399.9463186606647,383.79445573552607 L361.4750071580395,405.98615183555586 M361.4750071580395,405.98615183555586 L361.47073209286526,400.4326792700188 M361.4750071580395,405.98615183555586 L399.9463186606647,428.21733493932214 M727.3890567504318,439.3477670673762 L582.3203003347862,356.11020411373255 M582.3203003347862,356.11020411373255 L582.3405259066697,350.56228622918246 M727.3890567504318,439.3477670673762 L727.4254919054438,433.79059136891897 M458.09261347542525,596.2205659630831 L727.3890567504318,439.3477670673762 M458.09261347542525,596.2205659630831 L458.0991240895574,590.6461101123227 M582.3203003347862,356.11020411373255 L313.01884065038126,511.9377578083376 M313.01884065038126,511.9377578083376 L313.009140005586,506.37255883374837 M313.01884065038126,511.9377578083376 L458.09261347542525,596.2205659630831" stroke="black"  stroke-width="4"  fill="red"/>
<path d="M327.8126095932424,405.98615183555575 L327.73237187459125,350.39582968064263 M255.43805341708088,447.7020947548103 L255.2770414223805,392.06534414272375 M327.8126095932424,405.98615183555575 L255.43805341708088,447.7020947548103 M327.73237187459125,350.39582968064263 L255.2770414223805,392.06534414272375 M327.5713597301407,489.55755587780817 L327.4905841063343,433.87437706840564 M255.43805341708088,447.7020947548103 L327.5713597301407,489.55755587780817 M255.2770414223805,392.06534414272375 L327.4905841063343,433.87437706840564 M399.9463186606647,447.7020947548103 L399.9463186606647,392.06534414272375 M327.5713597301407,489.55755587780817 L399.9463186606647,447.7020947548103 M327.4905841063343,433.87437706840564 L399.9463186606647,392.06534414272375 M399.9463186606647,447.7020947548103 L327.8126095932424,405.98615183555575 M399.9463186606647,392.06534414272375 L327.73237187459125,350.39582968064263" stroke="black"  stroke-width="4"  fill="red"/>
<path d="M582.3203003347862,356.11020411373255 L582.5227581297174,300.57559536041475 M313.01884065038126,511.9377578083376 L312.92173667583893,456.22981767060963 M582.3203003347862,356.11020411373255 L313.01884065038126,511.9377578083376 M582.5227581297174,300.57559536041475 L312.92173667583893,456.22981767060963 M458.09261347542525,596.2205659630831 L458.1577852920748,540.4197755538257 M313.01884065038126,511.9377578083376 L458.09261347542525,596.2205659630831 M312.92173667583893,456.22981767060963 L458.1577852920748,540.4197755538257 M727.3890567504318,439.3477670673762 L727.7537735449184,383.72030215087466 M458.09261347542525,596.2205659630831 L727.3890567504318,439.3477670673762 M458.1577852920748,540.4197755538257 L727.7537735449184,383.72030215087466 M727.3890567504318,439.3477670673762 L582.3203003347862,356.11020411373255 M727.7537735449184,383.72030215087466 L582.5227581297174,300.57559536041475" stroke="black"  stroke-width="4"  fill="red"/>
<path d="M399.9463186606647,383.79445573552607 L399.9463186606647,361.5830424466025 M361.4750071580395,405.98615183555586 L361.45790119472133,383.76485365091065 M399.9463186606647,383.79445573552607 L361.4750071580395,405.98615183555586 M399.9463186606647,361.5830424466025 L361.45790119472133,383.76485365091065 M399.9463186606647,428.21733493932214 L399.9463186606647,405.98615183555586 M361.4750071580395,405.98615183555586 L399.9463186606647,428.21733493932214 M361.45790119472133,383.76485365091065 L399.9463186606647,405.98615183555586 M438.4176301632899,405.98615183555586 L438.43473612660813,383.76485365091065 M399.9463186606647,428.21733493932214 L438.4176301632899,405.98615183555586 M399.9463186606647,405.98615183555586 L438.43473612660813,383.76485365091065 M438.4176301632899,405.98615183555586 L399.9463186606647,383.79445573552607 M438.43473612660813,383.76485365091065 L399.9463186606647,361.5830424466025" stroke="black"  stroke-width="4"  fill="red"/>
<path d="M280.51964801923714,240.5037027717582 L280.3876848472577,185.09908170398938 M112.21074786540692,336.7677313130255 L111.89157363268896,281.25478839811757 M280.51964801923714,240.5037027717582 L112.21074786540692,336.7677313130255 M280.3876848472577,185.09908170398938 L111.89157363268896,281.25478839811757 M231.63433083667942,405.98615183555575 L231.44710949315993,350.39582968064263 M112.21074786540692,336.7677313130255 L231.63433083667942,405.98615183555575 M111.89157363268896,281.25478839811757 L231.44710949315993,350.39582968064263 M399.9463186606647,309.18761909596856 L399.9463186606647,253.70562668598913 M231.63433083667942,405.98615183555575 L399.9463186606647,309.18761909596856 M231.44710949315993,350.39582968064263 L399.9463186606647,253.70562668598913 M399.9463186606647,309.18761909596856 L280.51964801923714,240.5037027717582 M399.9463186606647,253.70562668598913 L280.3876848472577,185.09908170398938" stroke="black"  stroke-width="4"  fill="red"/></svg>