<svg viewBox="0 0 800 800" xmlns="http://www.w3.org/2000/svg"><path d="M78.89388336537229,500.6182349198882 L79.54250113146861,593.7388391949664 M79.54250113146861,593.7388391949664 L291.21484708387396,211.01237502432238 M107.03523291052733,316.2818855786922 L117.74772138476897,302.13014386643255 M117.74772138476897,302.13014386643255 L130.47794708153026,288.55739971927073 M130.47794708153026,288.55739971927073 L145.1325051643945,275.658516639189 M145.1325051643945,275.658516639189 L161.60484052128933,263.52331880239933 M161.60484052128933,263.52331880239933 L179.77615775634,252.2360541004221 M179.77615775634,252.2360541004221 L199.51624562777616,241.8748378532299 M199.51624562777616,241.8748378532299 L220.68442281141895,232.5111701649747 M220.68442281141895,232.5111701649747 L243.13052420618035,224.20949239578735 M243.13052420618035,224.20949239578735 L266.69598332278906,217.02682646840276 M266.69598332278906,217.02682646840276 L291.21484708387396,211.01237502432238 M78.89388336537229,500.6182349198882 L107.03523291052733,316.2818855786922 M98.26045204891392,486.3115078689679 L93.06118387856196,484.78636844197666 M93.06118387856196,484.78636844197666 L88.33535219331247,484.9303344737433 M88.33535219331247,484.9303344737433 L84.35563942665033,486.7341962743694 M84.35563942665033,486.7341962743694 L81.35135216147575,490.0929072505854 M81.35135216147575,490.0929072505854 L79.49529293484494,494.8118545811096 M79.49529293484494,494.8118545811096 L78.89388336537229,500.6182349198882 M79.54250113146861,593.7388391949664 L80.09583803020303,599.5589231056211 M80.09583803020303,599.5589231056211 L81.65324532114448,605.7138817645399 M81.65324532114448,605.7138817645399 L84.14266590289583,611.9197214608777 M84.14266590289583,611.9197214608777 L87.44915978425837,617.8902085410324 M87.44915978425837,617.8902085410324 L91.42022525697428,623.3499932987576 M91.42022525697428,623.3499932987576 L95.87274840396071,628.047189305989 M95.87274840396071,628.047189305989 L100.60141054284537,631.7649451202091 M101.0614502351275,487.74442249049815 L98.26045204891392,486.3115078689679 M100.60141054284537,631.7649451202091 L102.00139175922499,632.638778843873 M168.2558719230826,527.0100131120913 L101.0614502351275,487.74442249049815 M102.00139175922499,632.638778843873 L168.98782228161974,672.0239928568558 M235.675904428121,566.4074411952009 L168.2558719230826,527.0100131120913 M168.98782228161974,672.0239928568558 L236.19846265737516,711.5410328678739 M237.0896184914577,567.2847515582416 L235.675904428121,566.4074411952009 M236.19846265737516,711.5410328678739 L239.01054581045298,712.991111876576 M258.28058304204524,605.5598930432832 L257.74260660089976,599.7020443381617 M257.74260660089976,599.7020443381617 L256.18800220199364,593.5048925225689 M256.18800220199364,593.5048925225689 L253.68856010920595,587.2554668281948 M253.68856010920595,587.2554668281948 L250.35998615703284,581.2433366943252 M250.35998615703284,581.2433366943252 L246.3564894141829,575.7470771878002 M246.3564894141829,575.7470771878002 L241.86362859065557,571.0212957966379 M241.86362859065557,571.0212957966379 L237.0896184914577,567.2847515582416 M239.01054581045298,712.991111876576 L244.23633774464923,714.5541931906266 M244.23633774464923,714.5541931906266 L248.9945790105762,714.45171802117 M248.9945790105762,714.45171802117 L253.01043965172465,712.6887222993073 M253.01043965172465,712.6887222993073 L256.0516302557712,709.3660784627064 M256.0516302557712,709.3660784627064 L257.9419061196754,704.6748600641209 M257.9419061196754,704.6748600641209 L258.5714418576739,698.8855542070895 M258.5714418576739,698.8855542070895 L258.28058304204524,605.5598930432832 M137.41035175456489,603.0520086694836 L137.64654902373894,605.557279754972 M137.64654902373894,605.557279754972 L138.31618673346838,608.198860291563 M138.31618673346838,608.198860291563 L139.38591101249443,610.845326818338 M139.38591101249443,610.845326818338 L140.80248396780064,613.3650210789172 M140.80248396780064,613.3650210789172 L142.49544007228997,615.63260594469 M142.49544007228997,615.63260594469 L143.8605634607892,617.0658266793672 M143.8605634607892,617.0658266793672 L145.29229586021464,618.2652170209035 M146.41373014306433,619.0076033018584 L145.29229586021464,618.2652170209035 M191.18424169499792,645.2864571862216 L146.41373014306433,619.0076033018584 M191.7470141997796,645.5957075077424 L191.18424169499792,645.2864571862216 M191.7470141997796,645.5957075077424 L193.68224734894463,646.3288962319206 M193.68224734894463,646.3288962319206 L195.49519807356106,646.4966491978843 M195.49519807356106,646.4966491978843 L197.0986463466202,646.0907742574362 M197.0986463466202,646.0907742574362 L198.4154164703565,645.1306934798245 M198.4154164703565,645.1306934798245 L199.38209367730255,643.6624782148626 M199.38209367730255,643.6624782148626 L199.92602836256222,641.901224950992 M199.92602836256222,641.901224950992 L200.10347330273018,639.8341885720642 M199.9627679401212,607.6592063445736 L200.10347330273018,639.8341885720642 M199.9627679401212,607.6592063445736 L199.72887543985408,605.1482571588803 M199.72887543985408,605.1482571588803 L199.05962807369934,602.5002885635124 M199.05962807369934,602.5002885635124 L197.98833674890253,599.8472499628423 M197.98833674890253,599.8472499628423 L196.56837652382256,597.3213595802237 M196.56837652382256,597.3213595802237 L194.87051191937357,595.0485157154724 M194.87051191937357,595.0485157154724 L193.5010741931328,593.6122954585089 M193.5010741931328,593.6122954585089 L192.06462650078643,592.4107712457528 M190.93941944655924,591.6673742490702 L192.06462650078643,592.4107712457528 M146.11747968933503,565.417983189951 L190.93941944655924,591.6673742490702 M145.55535314627215,565.1098848293952 L146.11747968933503,565.417983189951 M145.55535314627215,565.1098848293952 L143.6229486986931,564.3813520902705 M143.6229486986931,564.3813520902705 L141.81365239160107,564.218935196525 M141.81365239160107,564.218935196525 L140.21451045565567,564.6303437335151 M140.21451045565567,564.6303437335151 L138.90241759333304,565.5956716835336 M138.90241759333304,565.5956716835336 L137.9404276217066,567.0683625903905 M137.9404276217066,567.0683625903905 L137.40051512650382,568.832767995895 M137.40051512650382,568.832767995895 L137.22644666447343,570.9017751836835 M137.41035175456489,603.0520086694836 L137.22644666447343,570.9017751836835 M100.60141054284537,631.7649451202091 L388.7394273097033,199.46457456783202 M291.21484708387396,211.01237502432238 L314.93377607255405,206.46826425222383 M314.93377607255405,206.46826425222383 L339.1941619322545,203.01621052119296 M339.1941619322545,203.01621052119296 L363.8465930829339,200.67696088074038 M363.8465930829339,200.67696088074038 L388.7394273097033,199.46457456783202 M177.28258939416253,511.3752798266113 L159.6754194642889,500.21086030303286 M159.6754194642889,500.21086030303286 L143.72746969795446,488.25347323172537 M143.72746969795446,488.25347323172537 L129.54480587901008,475.58576814961555 M129.54480587901008,475.58576814961555 L117.22099646157955,462.2950419989878 M117.22099646157955,462.2950419989878 L106.8365445784109,448.4725588665125 M106.8365445784109,448.4725588665125 L98.45841315851692,434.2129194947817 M98.45841315851692,434.2129194947817 L92.13959277068534,419.613373998073 M92.13959277068534,419.613373998073 L87.91889122331457,404.7731255603772 M87.91889122331457,404.7731255603772 L85.82076561836413,389.7926239645146 M85.82076561836413,389.7926239645146 L85.85524848001972,374.7729018684158 M177.28258939416253,511.3752798266113 L177.0048908479488,454.1377088715415 M177.0048908479488,454.1377088715415 L158.04638923803665,442.0665880463859 M158.04638923803665,442.0665880463859 L141.03355502023237,429.0802510397229 M141.03355502023237,429.0802510397229 L126.09810191191394,415.2832228743223 M126.09810191191394,415.2832228743223 L113.35463353157968,400.78617926077584 M113.35463353157968,400.78617926077584 L102.89979469901806,385.7050120703758 M102.89979469901806,385.7050120703758 L94.81162360073927,370.1598053512091 M94.81162360073927,370.1598053512091 L89.14911595128405,354.27385421019704 M89.14911595128405,354.27385421019704 L85.95177305893014,338.1726989038375 M85.95177305893014,338.1726989038375 L85.23959852537087,321.98299079255463 M85.23959852537087,321.98299079255463 L87.01298217312711,305.831607168221 M87.01298217312711,305.831607168221 L91.25293396680388,289.84458019358954 M91.25293396680388,289.84458019358954 L97.92133982541873,274.1461417554299 M97.92133982541873,274.1461417554299 L106.96143140778787,258.85777961980637 M106.96143140778787,258.85777961980637 L118.29836895161918,244.0973381047612 M118.29836895161918,244.0973381047612 L131.83999586623065,229.97814419113345 M131.83999586623065,229.97814419113345 L147.47757377093586,216.6082045059736 M147.47757377093586,216.6082045059736 L165.08678297454009,204.08940296631286 M165.08678297454009,204.08940296631286 L184.52877828014726,192.51685245364598 M184.52877828014726,192.51685245364598 L205.65118366358013,181.97815133943155 M205.65118366358013,181.97815133943155 L228.28946651776417,172.5528918580033 M228.28946651776417,172.5528918580033 L252.26801981275023,164.31202239306916 M252.26801981275023,164.31202239306916 L277.4016079461961,157.31746388046056 M277.4016079461961,157.31746388046056 L303.49671464693137,151.6216586952271 M303.49671464693137,151.6216586952271 L330.3529138726495,147.26723420183873 M330.3529138726495,147.26723420183873 L357.76435743466004,144.28672697395805 M357.76435743466004,144.28672697395805 L385.52126270965425,142.70241518719263 M385.52126270965425,142.70241518719263 L413.4114061074443,142.52610184220907 M413.4114061074443,142.52610184220907 L441.22159780123786,143.75911731109784 M441.22159780123786,143.75911731109784 L468.73919529128534,146.39225861581178 M468.73919529128534,146.39225861581178 L495.7536787114203,150.40585976569156 M495.7536787114203,150.40585976569156 L522.0580815544066,155.76992078489224 M522.0580815544066,155.76992078489224 L547.4504911934696,162.44432819848004 M547.4504911934696,162.44432819848004 L571.7355092913658,170.3790640627684 M571.7355092913658,170.3790640627684 L594.7257243078423,179.51452970556323 M594.7257243078423,179.51452970556323 L616.2429868607495,189.7820010733196 M616.2429868607495,189.7820010733196 L636.1198599178164,201.10400183975523 M636.1198599178164,201.10400183975523 L654.200839583407,213.39487047691046 M654.200839583407,213.39487047691046 L670.3435549577845,226.56133238532502 M670.3435549577845,226.56133238532502 L684.4199923670167,240.5031060700362 M684.4199923670167,240.5031060700362 L696.3174075152749,255.1136669989795 M696.3174075152749,255.1136669989795 L705.9393988774667,270.2809377038434 M705.9393988774667,270.2809377038434 L713.2067622237016,285.8881203200692 M713.2067622237016,285.8881203200692 L718.0581451158703,301.81455159300344 M718.0581451158703,301.81455159300344 L720.4507150227358,317.93660983603786 M720.4507150227358,317.93660983603786 L720.3606509702312,334.12860930188896 M720.3606509702312,334.12860930188896 L717.783509906803,350.26380419518233 M717.783509906803,350.26380419518233 L712.7343309412674,366.21538010032833 M712.7343309412674,366.21538010032833 L705.2478141001436,381.8574425932343 M705.2478141001436,381.8574425932343 L695.3780697922333,397.06603218489454 M695.3780697922333,397.06603218489454 L683.1984085865818,411.72014721276673 M683.1984085865818,411.72014721276673 L668.8008907324812,425.7027729580325 M668.8008907324812,425.7027729580325 L652.2957171663895,438.9018436728225 M652.2957171663895,438.9018436728225 L633.8103677374305,451.211186609682 M633.8103677374305,451.211186609682 L613.4888110162584,462.53151474692527 M613.4888110162584,462.53151474692527 L591.4902183839367,472.77119134784255 M591.4902183839367,472.77119134784255 L567.9878979927937,481.84714786115467 M567.9878979927937,481.84714786115467 L543.167748747307,489.68555558287557 M543.167748747307,489.68555558287557 L517.2268567241001,496.2225079624568 M517.2268567241001,496.2225079624568 L490.3718022062294,501.40464130777036 M490.3718022062294,501.40464130777036 L462.81695650401673,505.18957011690986 M462.81695650401673,505.18957011690986 L434.7826555658443,507.5463030160978 M434.7826555658443,507.5463030160978 L406.4933394579259,508.45552790345914 M406.4933394579259,508.45552790345914 L378.1756339432037,507.90980197019974 M378.1756339432037,507.90980197019974 L350.05644141292083,505.91359023840766 M350.05644141292083,505.91359023840766 L322.36086676360077,502.4832674938244 M322.36086676360077,502.4832674938244 L295.3105124833761,497.6468983718422 M295.3105124833761,497.6468983718422 L269.12138900135426,491.4440673398282 M269.12138900135426,491.4440673398282 L244.00217328828086,483.9254394574515 M244.00217328828086,483.9254394574515 L220.15249660045436,475.1523274733451 M220.15249660045436,475.1523274733451 L197.76121495999624,465.1961378043212 M197.76121495999624,465.1961378043212 L177.0048908479488,454.1377088715415 M413.9743690889592,565.659737534492 L387.7563123715475,565.5601900612722 M387.7563123715475,565.5601900612722 L361.64273813790936,564.2116122538766 M361.64273813790936,564.2116122538766 L335.8132032812012,561.6234889251919 M335.8132032812012,561.6234889251919 L310.4451443860803,557.8140203261329 M310.4451443860803,557.8140203261329 L285.7126314530492,552.8099688095874 M285.7126314530492,552.8099688095874 L261.78508024978385,546.6464429780307 M261.78508024978385,546.6464429780307 L238.82601722195898,539.3666530686963 M238.82601722195898,539.3666530686963 L216.99189642030845,531.0215362972622 M216.99189642030845,531.0215362972622 L196.43105034029398,521.6693605870893 M196.43105034029398,521.6693605870893 L177.28258939416253,511.3752798266113 M417.38646812411514,565.5806457780745 L416.2492552234384,565.6093661867376 M416.2492552234384,565.6093661867376 L415.1118830104931,565.6357267634507 M415.1118830104931,565.6357267634507 L413.9743690889592,565.659737534492 M516.3399822864282,553.6765191898661 L492.30533009506496,558.3579896395796 M492.30533009506496,558.3579896395796 L467.6955897406835,561.9168688060108 M467.6955897406835,561.9168688060108 L442.668953297535,564.3297241772353 M442.668953297535,564.3297241772353 L417.38646812411514,565.5806457780745 M700.5195200546023,446.2519380424193 L690.0975964450085,460.5797791581041 M690.0975964450085,460.5797791581041 L677.6024483125937,474.354350733855 M677.6024483125937,474.354350733855 L663.1207703367106,487.47502942893215 M663.1207703367106,487.47502942893215 L646.7541832200087,499.8456615224238 M646.7541832200087,499.8456615224238 L628.6184629481572,511.37527982661175 M628.6184629481572,511.37527982661175 L608.8428036555331,521.9788521282893 M608.8428036555331,521.9788521282893 L587.5689008785595,531.5779612123929 M587.5689008785595,531.5779612123929 L564.9499365615574,540.101445968245 M564.9499365615574,540.101445968245 L541.149409655341,547.4859530801161 M541.149409655341,547.4859530801161 L516.3399822864282,553.6765191898661 M719.9582139631466,391.3921653801375 L717.8523465346399,405.3775740065122 M717.8523465346399,405.3775740065122 L713.895457933064,419.23708540520283 M713.895457933064,419.23708540520283 L708.107531815942,432.88883751835783 M708.107531815942,432.88883751835783 L700.5195200546023,446.2519380424193 M720.2175646136944,387.4021892154542 L720.1478460916928,388.732458269655 M720.1478460916928,388.732458269655 L720.0613970063956,390.0624635550222 M720.0613970063956,390.0624635550222 L719.9582139631466,391.3921653801375 M626.1248945859813,252.23605410042256 L643.765524338734,263.1654576940698 M643.765524338734,263.1654576940698 L659.8129308350705,274.8941357359171 M659.8129308350705,274.8941357359171 L674.1583790403348,287.34557414119746 M674.1583790403348,287.34557414119746 L686.7039323807594,300.4382775696202 M686.7039323807594,300.4382775696202 L697.3631388912204,314.0862935791478 M697.3631388912204,314.0862935791478 L706.0616648507727,328.1997012932515 M706.0616648507727,328.1997012932515 L712.7379244704252,342.6851730482039 M712.7379244704252,342.6851730482039 L717.3435213370584,357.4465654506759 M717.3435213370584,357.4465654506759 L719.8436737461919,372.3855437996706 M719.8436737461919,372.3855437996706 L720.2175646136944,387.4021892154542 M392.0984545827393,199.3879278808186 L417.90811245228133,199.48439807625542 M417.90811245228133,199.48439807625542 L443.6196363128965,200.79144753692324 M443.6196363128965,200.79144753692324 L469.06425634356106,203.30070566038634 M469.06425634356106,203.30070566038634 L494.07486264132484,206.99608833606052 M494.07486264132484,206.99608833606052 L518.4869752350273,211.85389421115417 M518.4869752350273,211.85389421115417 L542.1397741953936,217.84293828722838 M542.1397741953936,217.84293828722838 L564.8771036145092,224.9246921319201 M564.8771036145092,224.9246921319201 L586.5484571746288,233.05353184735617 M586.5484571746288,233.05353184735617 L607.009868672504,242.17699184238262 M607.009868672504,242.17699184238262 L626.1248945859813,252.23605410042256 M388.7394273097033,199.46457456783202 L389.8589596017071,199.43674191327636 M389.8589596017071,199.43674191327636 L390.978640910056,199.4111962665362 M390.978640910056,199.4111962665362 L392.0984545827393,199.3879278808186 M86.22277381653578,370.78860724458013 L88.70333855370222,356.84459636570966 M88.70333855370222,356.84459636570966 L93.01960248071532,343.0589994244498 M93.01960248071532,343.0589994244498 L99.14316986148737,329.51194851758225 M99.14316986148737,329.51194851758225 L107.03523291052733,316.2818855786922 M85.85524848001972,374.7729018684158 L85.9610716471235,373.44422426841646 M85.9610716471235,373.44422426841646 L86.08358121986663,372.11611294790094 M86.08358121986663,372.11611294790094 L86.22277381653578,370.78860724458013 M98.26045204891392,486.3115078689679 L86.22277381653578,370.78860724458013 M101.0614502351275,487.74442249049815 L85.85524848001972,374.7729018684158 M102.00139175922499,632.638778843873 L392.0984545827393,199.3879278808186 M168.2558719230826,527.0100131120913 L177.28258939416253,511.3752798266113 M168.98782228161974,672.0239928568558 L626.1248945859813,252.23605410042256 M235.675904428121,566.4074411952009 L413.9743690889592,565.659737534492 M236.19846265737516,711.5410328678739 L720.2175646136944,387.4021892154542 M237.0896184914577,567.2847515582416 L417.38646812411514,565.5806457780745 M239.01054581045298,712.991111876576 L719.9582139631466,391.3921653801375 M258.28058304204524,605.5598930432832 L516.3399822864282,553.6765191898661 M258.5714418576739,698.8855542070895 L700.5195200546023,446.2519380424193 M137.41035175456489,603.0520086694836 L476.17222903854133,302.7369482452283 M486.28826964837276,315.8330659781691 L484.0651879317119,314.12609620224134 M484.0651879317119,314.12609620224134 L481.90406709579463,312.05908609198184 M481.90406709579463,312.05908609198184 L479.9295357382751,309.7512640104553 M479.9295357382751,309.7512640104553 L478.25548905207154,307.3357199434219 M478.25548905207154,307.3357199434219 L476.9784789404165,304.95177739481585 M476.9784789404165,304.95177739481585 L476.17222903854133,302.7369482452283 M145.29229586021464,618.2652170209035 L486.28826964837276,315.8330659781691 M487.42988373724353,316.54686928738613 L486.28826964837276,315.8330659781691 M146.41373014306433,619.0076033018584 L487.42988373724353,316.54686928738613 M532.302717259103,342.3285990897131 L487.42988373724353,316.54686928738613 M191.18424169499792,645.2864571862216 L532.302717259103,342.3285990897131 M532.8623601251778,342.63564405329356 L532.302717259103,342.3285990897131 M191.7470141997796,645.5957075077424 L532.8623601251778,342.63564405329356 M539.0077178626278,338.8277391232516 L539.2877250569289,340.560817430986 M539.2877250569289,340.560817430986 L539.1391907253736,341.9748571736591 M539.1391907253736,341.9748571736591 L538.5690840335998,343.00453839757125 M538.5690840335998,343.00453839757125 L537.6038400407422,343.6023485524828 M537.6038400407422,343.6023485524828 L536.2881608995177,343.74075020159285 M536.2881608995177,343.74075020159285 L534.6829320207066,343.41344174306505 M534.6829320207066,343.41344174306505 L532.8623601251778,342.63564405329356 M200.10347330273018,639.8341885720642 L539.0077178626278,338.8277391232516 M538.9889658061101,338.75653231867705 L539.0077178626278,338.8277391232516 M538.9889658061101,338.75653231867705 L435.4973234293647,398.60055059887 M199.9627679401212,607.6592063445736 L435.4973234293647,398.60055059887 M435.4973234293647,398.60055059887 L421.1893659051234,406.0436332565135 M421.1893659051234,406.0436332565135 L407.7243520864311,411.47029564138995 M407.7243520864311,411.47029564138995 L398.58980107743827,413.8310202478293 M398.58980107743827,413.8310202478293 L395.54809476819594,414.13047764910823 M395.54809476819594,414.13047764910823 L394.2830613023306,414.1065660276305 M394.2830613023306,414.1065660276305 L393.1983483639342,413.96685805751304 M192.06462650078643,592.4107712457528 L393.1983483639342,413.96685805751304 M393.1983483639342,413.96685805751304 L391.7980637655737,413.4738223648905 M190.93941944655924,591.6673742490702 L391.7980637655737,413.4738223648905 M391.7980637655737,413.4738223648905 L346.9152357517971,387.517556671943 M146.11747968933503,565.417983189951 L346.9152357517971,387.517556671943 M346.9152357517971,387.517556671943 L346.4207782467014,387.1524276997554 M145.55535314627215,565.1098848293952 L346.4207782467014,387.1524276997554 M346.4207782467014,387.1524276997554 L346.0420637859558,386.66927225817807 M346.0420637859558,386.66927225817807 L345.8283441178655,386.0972586952263 M345.8283441178655,386.0972586952263 L345.7806026945071,385.4390539818605 M345.7806026945071,385.4390539818605 L345.9753812545598,384.4327192787484 M345.9753812545598,384.4327192787484 L346.8170701815319,382.66472332360246 M346.8170701815319,382.66472332360246 L349.27985251625756,379.4983815322818 M349.27985251625756,379.4983815322818 L355.44678785548024,373.86222722431813 M355.44678785548024,373.86222722431813 L363.32769426504746,368.1163093067345 M363.32769426504746,368.1163093067345 L372.6613021816991,362.3241404000145 M137.22644666447343,570.9017751836835 L372.6613021816991,362.3241404000145 M372.6613021816991,362.3241404000145 L476.15336600969437,302.66577139726917 M476.17222903854133,302.7369482452283 L476.15336600969437,302.66577139726917 M183.82003088236144,450.21261591970836 L204.25261451349093,461.0811753823408 M204.25261451349093,461.0811753823408 L226.31311276707058,470.8487224655081 M226.31311276707058,470.8487224655081 L249.82260399329192,479.43374485652294 M249.82260399329192,479.43374485652294 L274.58958902302663,486.76445136889583 M274.58958902302663,486.76445136889583 L300.4116669571118,492.77940403921605 M300.4116669571118,492.77940403921605 L327.0772453478628,497.4280996844242 M327.0772453478628,497.4280996844242 L354.3673326788456,500.67148759197823 M354.3673326788456,500.67148759197823 L382.05745163218467,502.48226499307395 M382.05745163218467,502.48226499307395 L409.9196705825854,502.845170854495 M409.9196705825854,502.845170854495 L437.7244752887058,501.7571886828954 M437.7244752887058,501.7571886828954 L465.2429051087995,499.2274467770162 M465.2429051087995,499.2274467770162 L492.2485060430247,495.27725184369956 M492.2485060430247,495.27725184369956 L518.5192745454433,489.9398104594749 M518.5192745454433,489.9398104594749 L543.8397323175801,483.2599755033148 M543.8397323175801,483.2599755033148 L568.0026328648288,475.2937741133373 M568.0026328648288,475.2937741133373 L590.8108019758517,466.1078864909977 M590.8108019758517,466.1078864909977 L612.0788766861975,455.77907234429125 M612.0788766861975,455.77907234429125 L631.6347202830862,444.3933949751822 M631.6347202830862,444.3933949751822 L649.3209354290651,432.0454819300603 M649.3209354290651,432.0454819300603 L664.9961239070676,418.8376687946334 M664.9961239070676,418.8376687946334 L678.5359061780666,404.8790231667428 M678.5359061780666,404.8790231667428 L689.8339757403387,390.2844544596795 M689.8339757403387,390.2844544596795 L698.802783927963,375.1736692257425 M698.802783927963,375.1736692257425 L705.3741251835255,359.6701014608352 M705.3741251835255,359.6701014608352 L709.4996399750878,343.8999531151137 M709.4996399750878,343.8999531151137 L711.1509519167754,327.9910558489544 M711.1509519167754,327.9910558489544 L710.3198696821527,312.0718384669889 M710.3198696821527,312.0718384669889 L707.0180847243071,296.27031636802326 M707.0180847243071,296.27031636802326 L701.2771333287292,280.7129999493603 M701.2771333287292,280.7129999493603 L693.147887338916,265.5239730115701 M693.147887338916,265.5239730115701 L682.6999372040956,250.82389350105035 M682.6999372040956,250.82389350105035 L670.021024732818,236.72907021727696 M670.021024732818,236.72907021727696 L655.2161503193981,223.35061041172244 M655.2161503193981,223.35061041172244 L638.4066241316399,210.793610835501 M638.4066241316399,210.793610835501 L619.729081427537,199.15635980481179 M619.729081427537,199.15635980481179 L599.3342824991211,188.52967637515025 M599.3342824991211,188.52967637515025 L577.3859487952362,178.9962337160703 M577.3859487952362,178.9962337160703 L554.0593982613066,170.63001927975387 M554.0593982613066,170.63001927975387 L529.5402505368365,163.49579132092336 M529.5402505368365,163.49579132092336 L504.02294132003743,157.6486720683918 M504.02294132003743,157.6486720683918 L477.70926777757865,153.1337693816073 M477.70926777757865,153.1337693816073 L450.80691018193363,149.98583381963851 M450.80691018193363,149.98583381963851 L423.52788290656855,148.229099358601 M423.52788290656855,148.229099358601 L396.08690424803575,147.87708927478738 M396.08690424803575,147.87708927478738 L368.6999477814217,148.9324709840438 M368.6999477814217,148.9324709840438 L341.58254326758413,151.38716318315284 M341.58254326758413,151.38716318315284 L314.9482546228196,155.22227214730125 M314.9482546228196,155.22227214730125 L289.00714976997455,160.40829040589557 M289.00714976997455,160.40829040589557 L263.9641119380444,166.90523308687634 M263.9641119380444,166.90523308687634 L240.01747104440875,174.66295198597618 M240.01747104440875,174.66295198597618 L217.35745061348084,183.6214679145213 M217.35745061348084,183.6214679145213 L196.1646536323144,193.7113299710929 M196.1646536323144,193.7113299710929 L176.6087978096547,204.85415485035327 M176.6087978096547,204.85415485035327 L158.84728204211527,216.96312052173204 M158.84728204211527,216.96312052173204 L143.02392647025738,229.94357144530815 M143.02392647025738,229.94357144530815 L129.26787295883406,243.69374679100116 M129.26787295883406,243.69374679100116 L117.69238017414546,258.1054371828202 M117.69238017414546,258.1054371828202 L108.39391377790912,273.06481333491683 M108.39391377790912,273.06481333491683 L101.45127370317653,288.45330673949377 M101.45127370317653,288.45330673949377 L96.92475338707004,304.14841368226143 M96.92475338707004,304.14841368226143 L94.85561677625128,320.0247139440336 M94.85561677625128,320.0247139440336 L95.26548307211993,335.9548262367224 M95.26548307211993,335.9548262367224 L98.15619838205754,351.8103850185983 M98.15619838205754,351.8103850185983 L103.50943693984306,367.4631434659697 M103.50943693984306,367.4631434659697 L111.28678769144136,382.78595064387054 M111.28678769144136,382.78595064387054 L121.42997020598261,397.65384935032966 M121.42997020598261,397.65384935032966 L133.86103781605084,411.94513769045767 M133.86103781605084,411.94513769045767 L148.4829562918975,425.54239457369215 M148.4829562918975,425.54239457369215 L165.18029693956504,438.33349126993676 M165.18029693956504,438.33349126993676 L183.82003088236144,450.21261591970836 M538.9889658061101,338.75653231867705 L476.15336600969437,302.66577139726917 M615.0247602077918,258.64471967171124 L633.5461492747769,270.2308443029409 M633.5461492747769,270.2308443029409 L650.1840519212911,282.74370559976455 M650.1840519212911,282.74370559976455 L664.7992910127438,296.0824341077259 M664.7992910127438,296.0824341077259 L677.2686232643322,310.139114057184 M677.2686232643322,310.139114057184 L687.4857377181902,324.799644694197 M687.4857377181902,324.799644694197 L695.3623852200567,339.94453216048754 M695.3623852200567,339.94453216048754 L700.829047601354,355.449923678 M700.829047601354,355.449923678 L703.83578305047,371.18845298022336 M703.83578305047,371.18845298022336 L704.3527222372185,387.03034475806186 M704.3527222372185,387.03034475806186 L702.3705251499418,402.8444626138442 M702.3705251499418,402.8444626138442 L697.9005779679404,418.4993156696186 M697.9005779679404,418.4993156696186 L690.9751226348342,433.8642569338753 M690.9751226348342,433.8642569338753 L681.6470758601821,448.81051174876393 M681.6470758601821,448.81051174876393 L669.9898263428004,463.21238196817126 M669.9898263428004,463.21238196817126 L656.0966772371187,476.9482443051012 M656.0966772371187,476.9482443051012 L640.0802586987332,489.90172778159445 M640.0802586987332,489.90172778159445 L622.0716209022547,501.962692301807 M622.0716209022547,501.962692301807 L602.2192137387495,513.0282627285901 M602.2192137387495,513.0282627285901 L580.6877438792313,523.0037981936686 M580.6877438792313,523.0037981936686 L557.6567212595904,531.8037403015074 M557.6567212595904,531.8037403015074 L533.3190241465416,539.3524451377591 M533.3190241465416,539.3524451377591 L507.8791442589595,545.5848916734768 M507.8791442589595,545.5848916734768 L481.5514520774089,550.4472867245938 M481.5514520774089,550.4472867245938 L454.55829389927703,553.8976147587462 M454.55829389927703,553.8976147587462 L427.1280287979545,555.9060491200986 M427.1280287979545,555.9060491200986 L399.4929321593256,556.455188069069 M399.4929321593256,556.455188069069 L371.8871239648092,555.5402868024124 M371.8871239648092,555.5402868024124 L344.5444815050497,553.1692610835788 M344.5444815050497,553.1692610835788 L317.69650138912846,549.362627710024 M317.69650138912846,549.362627710024 L291.5701874329946,544.1533120986086 M291.5701874329946,544.1533120986086 L266.3860926250627,537.5863243341323 M266.3860926250627,537.5863243341323 L242.3563239205204,529.7182808135507 M242.3563239205204,529.7182808135507 L219.68260759555056,520.6169483426349 M219.68260759555056,520.6169483426349 L198.55462649801817,510.3605122834749 M198.55462649801817,510.3605122834749 L179.1483360439743,499.0368819240772 M179.1483360439743,499.0368819240772 L161.6244866576933,486.7428469610952 M161.6244866576933,486.7428469610952 L146.12730566760115,473.5831820751561 M146.12730566760115,473.5831820751561 L132.7833083545479,459.66968644479607 M132.7833083545479,459.66968644479607 L121.70039576473494,445.12013516466817 M121.70039576473494,445.12013516466817 L112.9669082891794,430.0572759537773 M112.9669082891794,430.0572759537773 L106.65116310225346,414.6077042264536 M106.65116310225346,414.6077042264536 L102.8009513641365,398.9007380084383 M102.8009513641365,398.9007380084383 L101.44328683737473,383.0673481559087 M101.44328683737473,383.0673481559087 L102.5843575228713,367.2390315074103 M102.5843575228713,367.2390315074103 L106.20967221173623,351.5466975787422 M106.20967221173623,351.5466975787422 L112.28427441354245,336.11960843985315 M112.28427441354245,336.11960843985315 L120.75329903596355,321.0843463887099 M120.75329903596355,321.0843463887099 L131.54248471043002,306.56378119750025 M131.54248471043002,306.56378119750025 L144.55892943701167,292.67612117597895 M144.55892943701167,292.67612117597895 L159.69202656289016,279.53399984896373 M159.69202656289016,279.53399984896373 L176.8144392968552,267.24365404159744 M176.8144392968552,267.24365404159744 L195.78319996027616,255.90408023673115 M195.78319996027616,255.90408023673115 L216.44097091078072,245.60635712640436 M216.44097091078072,245.60635712640436 L238.6172921747721,236.43293753208212 M238.6172921747721,236.43293753208212 L262.13000033508285,228.4570922346134 M262.13000033508285,228.4570922346134 L286.78673249305024,221.7423959183461 M286.78673249305024,221.7423959183461 L312.3863188219872,216.34224862301056 M312.3863188219872,216.34224862301056 L338.72050770677026,212.2995469054671 M338.72050770677026,212.2995469054671 L365.57538788077574,209.64634261376062 M365.57538788077574,209.64634261376062 L392.7331752071518,208.40367199001523 M392.7331752071518,208.40367199001523 L419.9737204525874,208.58137046241137 M419.9737204525874,208.58137046241137 L447.0763390099201,210.178037473979 M447.0763390099201,210.178037473979 L473.82134918797584,213.18101923409998 M473.82134918797584,213.18101923409998 L499.9917252576517,217.56652149479416 M499.9917252576517,217.56652149479416 L525.3748973087562,223.29973135245015 M525.3748973087562,223.29973135245015 L549.764156685465,230.33513225864272 M549.764156685465,230.33513225864272 L572.9604407825487,238.61671454601077 M572.9604407825487,238.61671454601077 L594.7737539010959,248.07845339074402 M594.7737539010959,248.07845339074402 L615.0247602077918,258.64471967171124 M183.62377631059428,408.5002225801416 L204.07457672426605,419.35912155662834 M204.07457672426605,419.35912155662834 L226.154775560408,429.11799449591985 M226.154775560408,429.11799449591985 L249.6852902389991,437.69539892032566 M249.6852902389991,437.69539892032566 L274.4744484015017,445.019604953457 M274.4744484015017,445.019604953457 L300.31966527634484,451.02922695565024 M300.31966527634484,451.02922695565024 L327.0091554994871,455.6738046553783 M327.0091554994871,455.6738046553783 L354.32372733556946,458.91432045782096 M354.32372733556946,458.91432045782096 L382.03869781917047,460.72349471811236 M382.03869781917047,460.72349471811236 L409.9259262466796,461.08607931721235 M409.9259262466796,461.08607931721235 L437.7556877342456,459.9990603117299 M437.7556877342456,459.9990603117299 L465.29881154254497,457.4715582794994 M465.29881154254497,457.4715582794994 L492.32863606210077,453.5248618907018 M492.32863606210077,453.5248618907018 L518.6229545513172,448.1921495812838 M518.6229545513172,448.1921495812838 L543.9660919587257,441.51823615705945 M543.9660919587257,441.51823615705945 L568.1506131561972,433.5591010988625 M568.1506131561972,433.5591010988625 L590.9791651891406,424.3813677449242 M590.9791651891406,424.3813677449242 L612.2662178895785,414.0617301477559 M612.2662178895785,414.0617301477559 L631.8394802055153,402.6861777474136 M631.8394802055153,402.6861777474136 L649.5414147022932,390.3492565715769 M649.5414147022932,390.3492565715769 L665.2304984216614,377.1532136838077 M665.2304984216614,377.1532136838077 L678.7822433021144,363.20702192025334 M678.7822433021144,363.20702192025334 L690.0902513993108,348.6254903877259 M690.0902513993108,348.6254903877259 L699.0669001830305,333.52822063035495 M699.0669001830305,333.52822063035495 L705.643928192381,318.03853781351324 M705.643928192381,318.03853781351324 L709.7729382407496,302.28253203121625 M709.7729382407496,302.28253203121625 L711.4255344790818,286.38792103682044 M711.4255344790818,286.38792103682044 L710.5935242999343,270.4830185766224 M710.5935242999343,270.4830185766224 L707.2886155942552,254.69572473939922 M707.2886155942552,254.69572473939922 L701.5423785766944,239.15243535336117 M701.5423785766944,239.15243535336117 L693.4057358729585,223.9771212500254 M693.4057358729585,223.9771212500254 L682.9483448456544,209.29032995402403 M682.9483448456544,209.29032995402403 L670.2580296888974,195.20826328580202 M670.2580296888974,195.20826328580202 L655.439887729618,181.84192580628633 M655.439887729618,181.84192580628633 L638.6153396670575,169.29631668271884 M638.6153396670575,169.29631668271884 L619.9211439384237,157.66963257134375 M619.9211439384237,157.66963257134375 L599.5081955528453,147.05260749041295 M599.5081955528453,147.05260749041295 L577.540361167985,137.52783691073864 M577.540361167985,137.52783691073864 L554.1931132386835,129.1692385152503 M554.1931132386835,129.1692385152503 L529.6522341160096,122.04150930953227 M529.6522341160096,122.04150930953227 L504.11232917439435,116.19971925299791 M504.11232917439435,116.19971925299791 L477.7753710377846,111.68893333969095 M477.7753710377846,111.68893333969095 L450.84922003550156,108.54386904752636 M450.84922003550156,108.54386904752636 L423.5460739728775,106.78873725467065 M423.5460739728775,106.78873725467065 L396.080836671043,106.43704833791816 M396.080836671043,106.43704833791816 L368.66966821015046,107.49146716610437 M368.66966821015046,107.49146716610437 L341.52828450696023,109.94392014808352 M341.52828450696023,109.94392014808352 L314.87043411006954,113.77553157529786 M314.87043411006954,113.77553157529786 L288.9063668625822,118.95682208635071 M288.9063668625822,118.95682208635071 L263.84114386138265,125.4478448408384 M263.84114386138265,125.4478448408384 L239.87326776498037,133.19849924135906 M239.87326776498037,133.19849924135906 L217.19312845356643,142.14886290459452 M217.19312845356643,142.14886290459452 L195.98148763570893,152.22955052100824 M195.98148763570893,152.22955052100824 L176.40821305038017,163.3622525797956 M176.40821305038017,163.3622525797956 L158.6308436969622,175.4602285000477 M158.6308436969622,175.4602285000477 L142.79332877660482,188.42891119548852 M142.79332877660482,188.42891119548852 L129.02492716693018,202.16663453204254 M129.02492716693018,202.16663453204254 L117.43900136960423,216.56528937951896 M117.43900136960423,216.56528937951896 L108.13210680452988,231.51115140666212 M108.13210680452988,231.51115140666212 L101.18311819086603,246.88576089160466 M101.18311819086603,246.88576089160466 L96.65238788968043,262.56672594214666 M96.65238788968043,262.56672594214666 L94.58122227914782,278.4287402238498 M94.58122227914782,278.4287402238498 L94.99126577262507,294.344537497269 M94.99126577262507,294.344537497269 L97.8843721659951,310.1858675339443 M97.8843721659951,310.1858675339443 L103.24220530759163,325.8245980953319 M103.24220530759163,325.8245980953319 L111.02632556916058,341.13369124380733 M111.02632556916058,341.13369124380733 L121.17840576415779,355.98830023866805 M121.17840576415779,355.98830023866805 L133.6204342981822,370.2668302133626 M133.6204342981822,370.2668302133626 L148.25529420849608,383.85196282524873 M148.25529420849608,383.85196282524873 L164.96745675448656,396.6316669915595 M164.96745675448656,396.6316669915595 L183.62377631059428,408.5002225801416 M183.62377631059428,408.5002225801416 L183.82003088236144,450.21261591970836 M615.0247602077918,258.64471967171124 L615.4710591995064,160.22801926691503 M615.4710591995064,160.22801926691503 L634.0316684134538,171.7892841736556 M634.0316684134538,171.7892841736556 L650.70488338402,184.27532459210897 M650.70488338402,184.27532459210897 L665.3512289878195,197.58549321718766 M665.3512289878195,197.58549321718766 L677.8471952462655,211.61211091738198 M677.8471952462655,211.61211091738198 L688.0862380996144,226.2413259917497 M688.0862380996144,226.2413259917497 L695.9799115266976,241.35390414702903 M695.9799115266976,241.35390414702903 L701.458538469461,256.8262602915425 M701.458538469461,256.8262602915425 L704.4720583681806,272.53130201486516 M704.4720583681806,272.53130201486516 L704.990524762651,288.3395315710941 M704.990524762651,288.3395315710941 L703.0045635517216,304.12009153699546 M703.0045635517216,304.12009153699546 L698.5255707532037,319.74176926020414 M698.5255707532037,319.74176926020414 L691.5858428284918,335.0741927086459 M691.5858428284918,335.0741927086459 L682.2383957586335,349.9888568103647 M682.2383957586335,349.9888568103647 L670.5567622710304,364.36032519960094 M670.5567622710304,364.36032519960094 L656.6344335076058,378.0672266113258 M656.6344335076058,378.0672266113258 L640.5842706560206,390.99343003875424 M640.5842706560206,390.99343003875424 L622.5375963014523,403.02902146615554 M622.5375963014523,403.02902146615554 L602.6431721408283,414.07133601263564 M602.6431721408283,414.07133601263564 L581.0660537168663,424.0259254623484 M581.0660537168663,424.0259254623484 L557.9861338228136,432.8074049499132 M557.9861338228136,432.8074049499132 L533.5967044390633,440.34028348186683 M533.5967044390633,440.34028348186683 L508.1026979562526,446.55967110143456 M508.1026979562526,446.55967110143456 L481.7189485480674,451.4118828043967 M481.7189485480674,451.4118828043967 L454.6682848591432,454.85498738865 M454.6682848591432,454.85498738865 L427.17956240719906,456.85921797560417 M427.17956240719906,456.85921797560417 L399.4855622305678,457.4072076707321 M399.4855622305678,457.4072076707321 L371.82091430355626,456.4942211661463 M371.82091430355626,456.4942211661463 L344.4200053337416,454.1281583821523 M344.4200053337416,454.1281583821523 L317.51483574904466,450.32949502790365 M317.51483574904466,450.32949502790365 L291.332902638503,445.1310905093876 M291.332902638503,445.1310905093876 L266.09523713455553,438.5778645300339 M266.09523713455553,438.5778645300339 L242.01440459652136,430.72631956936976 M242.01440459652136,430.72631956936976 L219.29256554586507,421.6440857320699 M219.29256554586507,421.6440857320699 L198.1198091542591,411.4091901989643 M198.1198091542591,411.4091901989643 L178.67246551365687,400.1093638034176 M178.67246551365687,400.1093638034176 L161.1116248784357,387.84119902364387 M161.1116248784357,387.84119902364387 L145.58181679220345,374.70925617661237 M145.58181679220345,374.70925617661237 L132.20981873014046,360.8251046966555 M132.20981873014046,360.8251046966555 L121.10375220010633,346.30627652240236 M121.10375220010633,346.30627652240236 L112.35213459104682,331.2752647048414 M112.35213459104682,331.2752647048414 L106.02341597635865,315.8584006687704 M106.02341597635865,315.8584006687704 L102.16547564967823,300.18473136037835 M102.16547564967823,300.18473136037835 L100.80537064712587,284.3849516255241 M100.80537064712587,284.3849516255241 L101.94928774647855,268.5902796897218 M101.94928774647855,268.5902796897218 L105.58269080498894,252.9313462023249 M105.58269080498894,252.9313462023249 L111.67053561016206,237.53713639938906 M111.67053561016206,237.53713639938906 L120.15782818608568,222.53396005213187 M120.15782818608568,222.53396005213187 L130.97013861835774,208.0444210335985 M130.97013861835774,208.0444210335985 L144.01435866378714,194.18647056418737 M144.01435866378714,194.18647056418737 L159.1796400157597,181.07249602988898 M159.1796400157597,181.07249602988898 L176.33837111841189,168.80850104072263 M176.33837111841189,168.80850104072263 L195.3472789078205,157.4932638286655 M195.3472789078205,157.4932638286655 L216.04869248538893,147.21766149642983 M216.04869248538893,147.21766149642983 L238.2717933936048,138.06396370546878 M238.2717933936048,138.06396370546878 L261.83403742586347,130.1052779443222 M261.83403742586347,130.1052779443222 L286.54266161337773,123.40503680930749 M286.54266161337773,123.40503680930749 L312.19607949839417,118.01652069828714 M312.19607949839417,118.01652069828714 L338.58560962761254,113.98252986692944 M338.58560962761254,113.98252986692944 L365.49690035258504,111.3350440929737 M365.49690035258504,111.3350440929737 L392.7117199959689,110.09505226660087 M392.7117199959689,110.09505226660087 L420.0094673931724,110.2723676612303 M420.0094673931724,110.2723676612303 L447.1690050399827,111.86559287582423 M447.1690050399827,111.86559287582423 L473.97020019041287,114.8621026181666 M473.97020019041287,114.8621026181666 L500.1955809603458,119.23815618972162 M500.1955809603458,119.23815618972162 L525.6321395719259,124.95901893501286 M525.6321395719259,124.95901893501286 L550.0727403838544,131.9792764451745 M550.0727403838544,131.9792764451745 L573.3179081241911,140.24304446685824 M573.3179081241911,140.24304446685824 L595.177251477152,149.68444564228625 M595.177251477152,149.68444564228625 L615.4710591995064,160.22801926691503" stroke="black"  stroke-width="4"  fill="red"/>
<path d="M626.6687399675858,138.25794637992578 L645.6896035010082,150.06080860818764 M645.6896035010082,150.06080860818764 L662.8394350837752,162.78567200641564 M662.8394350837752,162.78567200641564 L677.9827296160778,176.3358079606368 M677.9827296160778,176.3358079606368 L690.9988204554966,190.60785772010814 M690.9988204554966,190.60785772010814 L701.7829136640783,205.49254167017583 M701.7829136640783,205.49254167017583 L710.2469887454336,220.8754794767322 M710.2469887454336,220.8754794767322 L716.3205435936068,236.63799695226498 M716.3205435936068,236.63799695226498 L719.9514023336847,252.65795140016343 M719.9514023336847,252.65795140016343 L721.1061166346277,268.81076241825 M721.1061166346277,268.81076241825 L719.7704974011687,284.97023676923413 M719.7704974011687,284.97023676923413 L715.9498136440492,301.0096213235923 M715.9498136440492,301.0096213235923 L709.6689651646846,316.80258450980523 M709.6689651646846,316.80258450980523 L700.9724264516935,332.2242293729131 M700.9724264516935,332.2242293729131 L689.9240491602068,347.15210285591314 M689.9240491602068,347.15210285591314 L676.6066526394104,361.4672171544662 M676.6066526394104,361.4672171544662 L661.1215835264413,375.055032669749 M661.1215835264413,375.055032669749 L643.5879496431501,387.8064681964001 M643.5879496431501,387.8064681964001 L624.1417288155759,399.6187759986321 M624.1417288155759,399.6187759986321 L602.9348712012967,410.3965283416443 M602.9348712012967,410.3965283416443 L580.1339386526846,420.05235424765914 M580.1339386526846,420.05235424765914 L555.9189683031843,428.5078250234334 M555.9189683031843,428.5078250234334 L530.4818904473891,435.69407176820994 M530.4818904473891,435.69407176820994 L504.0249780339113,441.55245662378746 M504.0249780339113,441.55245662378746 L476.7592084787689,446.03510444870886 M476.7592084787689,446.03510444870886 L448.90245162251654,449.1053440313011 M448.90245162251654,449.1053440313011 L420.6776120534884,450.7380047334308 M420.6776120534884,450.7380047334308 L392.31073209601465,450.91972663900293 M392.31073209601465,450.91972663900293 L364.029091763972,449.64900471547446 M364.029091763972,449.64900471547446 L336.059261213866,446.93625662622844 M336.059261213866,446.93625662622844 L308.6250952007119,442.80371375756096 M308.6250952007119,442.80371375756096 L281.94589295946747,437.28521123964583 M281.94589295946747,437.28521123964583 L256.2345184200855,430.4258458326547 M256.2345184200855,430.4258458326547 L231.69560307107997,422.281611290829 M231.69560307107997,422.281611290829 L208.52378982799564,412.9188861628073 M208.52378982799564,412.9188861628073 L186.90223991853375,402.41376306013075 M186.90223991853375,402.41376306013075 L167.00102853816207,390.85144519182995 M167.00102853816207,390.85144519182995 L148.9758482624146,378.32543425089 M148.9758482624146,378.32543425089 L132.9668079385881,364.9367109871275 M132.9668079385881,364.9367109871275 L119.09728167651417,350.79288600211885 M119.09728167651417,350.79288600211885 L107.47314829251411,336.0072029105462 M107.47314829251411,336.0072029105462 L98.18193301296503,320.697636191177 M98.18193301296503,320.697636191177 L91.29223379829898,304.9858706871875 M91.29223379829898,304.9858706871875 L86.85340090464945,288.99629056051356 M86.85340090464945,288.99629056051356 L84.89524515391815,272.8549526491066 M84.89524515391815,272.8549526491066 L85.42795298419202,256.6886125182415 M85.42795298419202,256.6886125182415 L88.4421475311234,240.6236832440377 M88.4421475311234,240.6236832440377 L93.90921595529926,224.78525087340708 M93.90921595529926,224.78525087340708 L101.78155356834264,209.29613608002768 M101.78155356834264,209.29613608002768 L111.99321606117604,194.27597147209877 M111.99321606117604,194.27597147209877 L124.46049791537797,179.8403102661049 M124.46049791537797,179.8403102661049 L139.08270596302054,166.0997642546219 M139.08270596302054,166.0997642546219 L155.74303481778153,153.15923812428815 M155.74303481778153,153.15923812428815 L174.30963087890757,141.1172055070561 M174.30963087890757,141.1172055070561 L194.63651832039363,130.06495533390722 M194.63651832039363,130.06495533390722 L216.56493990650736,120.08607204551333 M216.56493990650736,120.08607204551333 L239.92440946547947,111.25576917361764 M239.92440946547947,111.25576917361764 L264.5341619652354,103.64045911987489 M264.5341619652354,103.64045911987489 L290.20439320136904,97.29730088732981 M290.20439320136904,97.29730088732981 L316.737719423412,92.27378970026984 M316.737719423412,92.27378970026984 L343.9305871157539,88.60750209929108 M343.9305871157539,88.60750209929108 L371.574755482522,86.32582991936067 M371.574755482522,86.32582991936067 L399.45877298560316,85.44580680937344 M399.45877298560316,85.44580680937344 L427.3694835271284,85.97398928323491 M427.3694835271284,85.97398928323491 L455.09350865484083,87.90644471276335 M455.09350865484083,87.90644471276335 L482.41889074591927,91.22873424655671 M482.41889074591927,91.22873424655671 L509.13638417052374,95.91607050109934 M509.13638417052374,95.91607050109934 L535.0411492173687,101.93338867867425 M535.0411492173687,101.93338867867425 L559.9341401175592,109.235643278915 M559.9341401175592,109.235643278915 L583.6235108049902,117.76806772244856 M583.6235108049902,117.76806772244856 L605.9260945699561,127.46652554416039 M605.9260945699561,127.46652554416039 L626.6687399675858,138.25794637992578 M626.6687399675858,138.25794637992578 L626.3964863607973,195.31635299960132 M626.3964863607973,195.31635299960132 L605.6791990585858,184.5114113487899 M605.6791990585858,184.5114113487899 L583.4038360036565,174.80079161848687 M583.4038360036565,174.80079161848687 L559.7433390465591,166.25765926472508 M559.7433390465591,166.25765926472508 L534.8806543920566,158.94623447194425 M534.8806543920566,158.94623447194425 L509.0073982110907,152.92135549721593 M509.0073982110907,152.92135549721593 L482.32237864614876,148.22812692683885 M482.32237864614876,148.22812692683885 L455.0301915886902,144.90165963333217 M455.0301915886902,144.90165963333217 L427.3398341461851,142.96677361624893 M427.3398341461851,142.96677361624893 L399.4630125584489,142.43792674085557 M399.4630125584489,142.43792674085557 L371.61285237425176,143.31905681689523 M371.61285237425176,143.31905681689523 L344.00225702862156,145.60359869245502 M344.00225702862156,145.60359869245502 L316.8424272040689,149.27449629072234 M316.8424272040689,149.27449629072234 L290.3413562517905,154.3043217459686 M290.3413562517905,154.3043217459686 L264.7023552362229,160.65544916143884 M264.7023552362229,160.65544916143884 L240.12257206156653,168.28032104511968 M240.12257206156653,168.28032104511968 L216.79158324069,177.12170363235495 M216.79158324069,177.12170363235495 L194.88993591243826,187.11309789390953 M194.88993591243826,187.11309789390953 L174.587909566698,198.1791924964461 M174.587909566698,198.1791924964461 L156.04406767676855,210.23629469605015 M156.04406767676855,210.23629469605015 L139.40420649445343,223.19299772900285 M139.40420649445343,223.19299772900285 L124.80001589521282,236.95070138941708 M124.80001589521282,236.95070138941708 L112.34815458994831,251.40436675191353 M112.34815458994831,251.40436675191353 L102.14918753065876,266.4432411506824 M102.14918753065876,266.4432411506824 L94.28671169787305,281.9516249313067 M94.28671169787305,281.9516249313067 L88.82658367074032,297.8097346563566 M88.82658367074032,297.8097346563566 L85.81634213684384,313.8945956215126 M85.81634213684384,313.8945956215126 L85.28455669899654,330.08096575401805 M85.28455669899654,330.08096575401805 L87.24058430178513,346.2422751576216 M87.24058430178513,346.2422751576216 L91.67424256796795,362.25161188462016 M91.67424256796795,362.25161188462016 L98.55574905686473,377.9827644273117 M98.55574905686473,377.9827644273117 L107.8358063663178,393.31119683163297 M107.8358063663178,393.31119683163297 L119.44589374696193,408.1150765441589 M119.44589374696193,408.1150765441589 L133.29858736656126,422.27628661859626 M133.29858736656126,422.27628661859626 L149.28813347145586,435.6814473662767 M149.28813347145586,435.6814473662767 L167.29130578074762,448.22281949236117 M167.29130578074762,448.22281949236117 L187.16816522035958,459.79930202367564 M187.16816522035958,459.79930202367564 L208.7632095832229,470.31728241180144 M208.7632095832229,470.31728241180144 L231.90657317918166,479.6914568167949 M231.90657317918166,479.6914568167949 L256.4153217985904,487.84564306813235 M256.4153217985904,487.84564306813235 L282.0950550043134,494.7133847273135 M282.0950550043134,494.7133847273135 L308.741397287172,500.238622508631 M308.741397287172,500.238622508631 L336.14175187182724,504.3762069886865 M336.14175187182724,504.3762069886865 L364.077095441006,507.09226359057766 M364.077095441006,507.09226359057766 L392.32385537780965,508.36453504044573 M392.32385537780965,508.36453504044573 L420.6557473691966,508.18259155248177 M420.6557473691966,508.18259155248177 L448.8457782183983,506.54793991105646 M448.8457782183983,506.54793991105646 L476.6681907283589,503.47395557906736 M476.6681907283589,503.47395557906736 L503.9003611488078,498.9858385130382 M503.9003611488078,498.9858385130382 L530.3246936075005,493.12030269280433 M530.3246936075005,493.12030269280433 L555.7304752778208,485.92527919631516 M555.7304752778208,485.92527919631516 L579.9156859996835,477.4594745498672 M579.9156859996835,477.4594745498672 L602.6886342957894,467.791838524244 M602.6886342957894,467.791838524244 L623.8695058594568,457.0008921976149 M623.8695058594568,457.0008921976149 L643.2919436612958,445.1741098350054 M643.2919436612958,445.1741098350054 L660.804182948823,432.40703242387264 M660.804182948823,432.40703242387264 L676.2704102394747,418.80253016202414 M676.2704102394747,418.80253016202414 L689.5716599691259,404.46981485767355 M689.5716599691259,404.46981485767355 L700.6067046990248,389.5235639104647 M700.6067046990248,389.5235639104647 L709.2928204413014,374.08290899941665 M709.2928204413014,374.08290899941665 L715.5662267215923,358.27045202025084 M715.5662267215923,358.27045202025084 L719.382495774781,342.2112425513296 M719.382495774781,342.2112425513296 L720.7167500699214,326.03176738314863 M720.7167500699214,326.03176738314863 L719.563718604699,309.8589362398147 M719.563718604699,309.8589362398147 L715.9375646966423,293.81909912104635 M715.9375646966423,293.81909912104635 L709.8716876192726,278.03699203579583 M709.8716876192726,278.03699203579583 L701.4181918091224,262.63491106542256 M701.4181918091224,262.63491106542256 L690.6474862779967,247.73168021372697 M690.6474862779967,247.73168021372697 L677.6474779659475,233.44182494939307 M677.6474779659475,233.44182494939307 L662.5228278783809,219.87476423098275 M662.5228278783809,219.87476423098275 L645.3940515899895,207.1339892212583 M645.3940515899895,207.1339892212583 L626.3964863607973,195.31635299960132 M183.62377631059428,408.5002225801416 L204.07457672426605,419.35912155662834 M204.07457672426605,419.35912155662834 L226.154775560408,429.11799449591985 M226.154775560408,429.11799449591985 L249.6852902389991,437.69539892032566 M249.6852902389991,437.69539892032566 L274.4744484015017,445.019604953457 M274.4744484015017,445.019604953457 L300.31966527634484,451.02922695565024 M300.31966527634484,451.02922695565024 L327.0091554994871,455.6738046553783 M327.0091554994871,455.6738046553783 L354.32372733556946,458.91432045782096 M354.32372733556946,458.91432045782096 L382.03869781917047,460.72349471811236 M382.03869781917047,460.72349471811236 L409.9259262466796,461.08607931721235 M409.9259262466796,461.08607931721235 L437.7556877342456,459.9990603117299 M437.7556877342456,459.9990603117299 L465.29881154254497,457.4715582794994 M465.29881154254497,457.4715582794994 L492.32863606210077,453.5248618907018 M492.32863606210077,453.5248618907018 L518.6229545513172,448.1921495812838 M518.6229545513172,448.1921495812838 L543.9660919587257,441.51823615705945 M543.9660919587257,441.51823615705945 L568.1506131561972,433.5591010988625 M568.1506131561972,433.5591010988625 L590.9791651891406,424.3813677449242 M590.9791651891406,424.3813677449242 L612.2662178895785,414.0617301477559 M612.2662178895785,414.0617301477559 L631.8394802055153,402.6861777474136 M631.8394802055153,402.6861777474136 L649.5414147022932,390.3492565715769 M649.5414147022932,390.3492565715769 L665.2304984216614,377.1532136838077 M665.2304984216614,377.1532136838077 L678.7822433021144,363.20702192025334 M678.7822433021144,363.20702192025334 L690.0902513993108,348.6254903877259 M690.0902513993108,348.6254903877259 L699.0669001830305,333.52822063035495 M699.0669001830305,333.52822063035495 L705.643928192381,318.03853781351324 M705.643928192381,318.03853781351324 L709.7729382407496,302.28253203121625 M709.7729382407496,302.28253203121625 L711.4255344790818,286.38792103682044 M711.4255344790818,286.38792103682044 L710.5935242999343,270.4830185766224 M710.5935242999343,270.4830185766224 L707.2886155942552,254.69572473939922 M707.2886155942552,254.69572473939922 L701.5423785766944,239.15243535336117 M701.5423785766944,239.15243535336117 L693.4057358729585,223.9771212500254 M693.4057358729585,223.9771212500254 L682.9483448456544,209.29032995402403 M682.9483448456544,209.29032995402403 L670.2580296888974,195.20826328580202 M670.2580296888974,195.20826328580202 L655.439887729618,181.84192580628633 M655.439887729618,181.84192580628633 L638.6153396670575,169.29631668271884 M638.6153396670575,169.29631668271884 L619.9211439384237,157.66963257134375 M619.9211439384237,157.66963257134375 L599.5081955528453,147.05260749041295 M599.5081955528453,147.05260749041295 L577.540361167985,137.52783691073864 M577.540361167985,137.52783691073864 L554.1931132386835,129.1692385152503 M554.1931132386835,129.1692385152503 L529.6522341160096,122.04150930953227 M529.6522341160096,122.04150930953227 L504.11232917439435,116.19971925299791 M504.11232917439435,116.19971925299791 L477.7753710377846,111.68893333969095 M477.7753710377846,111.68893333969095 L450.84922003550156,108.54386904752636 M450.84922003550156,108.54386904752636 L423.5460739728775,106.78873725467065 M423.5460739728775,106.78873725467065 L396.080836671043,106.43704833791816 M396.080836671043,106.43704833791816 L368.66966821015046,107.49146716610437 M368.66966821015046,107.49146716610437 L341.52828450696023,109.94392014808352 M341.52828450696023,109.94392014808352 L314.87043411006954,113.77553157529786 M314.87043411006954,113.77553157529786 L288.9063668625822,118.95682208635071 M288.9063668625822,118.95682208635071 L263.84114386138265,125.4478448408384 M263.84114386138265,125.4478448408384 L239.87326776498037,133.19849924135906 M239.87326776498037,133.19849924135906 L217.19312845356643,142.14886290459452 M217.19312845356643,142.14886290459452 L195.98148763570893,152.22955052100824 M195.98148763570893,152.22955052100824 L176.40821305038017,163.3622525797956 M176.40821305038017,163.3622525797956 L158.6308436969622,175.4602285000477 M158.6308436969622,175.4602285000477 L142.79332877660482,188.42891119548852 M142.79332877660482,188.42891119548852 L129.02492716693018,202.16663453204254 M129.02492716693018,202.16663453204254 L117.43900136960423,216.56528937951896 M117.43900136960423,216.56528937951896 L108.13210680452988,231.51115140666212 M108.13210680452988,231.51115140666212 L101.18311819086603,246.88576089160466 M101.18311819086603,246.88576089160466 L96.65238788968043,262.56672594214666 M96.65238788968043,262.56672594214666 L94.58122227914782,278.4287402238498 M94.58122227914782,278.4287402238498 L94.99126577262507,294.344537497269 M94.99126577262507,294.344537497269 L97.8843721659951,310.1858675339443 M97.8843721659951,310.1858675339443 L103.24220530759163,325.8245980953319 M103.24220530759163,325.8245980953319 L111.02632556916058,341.13369124380733 M111.02632556916058,341.13369124380733 L121.17840576415779,355.98830023866805 M121.17840576415779,355.98830023866805 L133.6204342981822,370.2668302133626 M133.6204342981822,370.2668302133626 L148.25529420849608,383.85196282524873 M148.25529420849608,383.85196282524873 L164.96745675448656,396.6316669915595 M164.96745675448656,396.6316669915595 L183.62377631059428,408.5002225801416 M183.62377631059428,408.5002225801416 L183.82003088236144,450.21261591970836 M183.82003088236144,450.21261591970836 L204.25261451349093,461.0811753823408 M204.25261451349093,461.0811753823408 L226.31311276707058,470.8487224655081 M226.31311276707058,470.8487224655081 L249.82260399329192,479.43374485652294 M249.82260399329192,479.43374485652294 L274.58958902302663,486.76445136889583 M274.58958902302663,486.76445136889583 L300.4116669571118,492.77940403921605 M300.4116669571118,492.77940403921605 L327.0772453478628,497.4280996844242 M327.0772453478628,497.4280996844242 L354.3673326788456,500.67148759197823 M354.3673326788456,500.67148759197823 L382.05745163218467,502.48226499307395 M382.05745163218467,502.48226499307395 L409.9196705825854,502.845170854495 M409.9196705825854,502.845170854495 L437.7244752887058,501.7571886828954 M437.7244752887058,501.7571886828954 L465.2429051087995,499.2274467770162 M465.2429051087995,499.2274467770162 L492.2485060430247,495.27725184369956 M492.2485060430247,495.27725184369956 L518.5192745454433,489.9398104594749 M518.5192745454433,489.9398104594749 L543.8397323175801,483.2599755033148 M543.8397323175801,483.2599755033148 L568.0026328648288,475.2937741133373 M568.0026328648288,475.2937741133373 L590.8108019758517,466.1078864909977 M590.8108019758517,466.1078864909977 L612.0788766861975,455.77907234429125 M612.0788766861975,455.77907234429125 L631.6347202830862,444.3933949751822 M631.6347202830862,444.3933949751822 L649.3209354290651,432.0454819300603 M649.3209354290651,432.0454819300603 L664.9961239070676,418.8376687946334 M664.9961239070676,418.8376687946334 L678.5359061780666,404.8790231667428 M678.5359061780666,404.8790231667428 L689.8339757403387,390.2844544596795 M689.8339757403387,390.2844544596795 L698.802783927963,375.1736692257425 M698.802783927963,375.1736692257425 L705.3741251835255,359.6701014608352 M705.3741251835255,359.6701014608352 L709.4996399750878,343.8999531151137 M709.4996399750878,343.8999531151137 L711.1509519167754,327.9910558489544 M711.1509519167754,327.9910558489544 L710.3198696821527,312.0718384669889 M710.3198696821527,312.0718384669889 L707.0180847243071,296.27031636802326 M707.0180847243071,296.27031636802326 L701.2771333287292,280.7129999493603 M701.2771333287292,280.7129999493603 L693.147887338916,265.5239730115701 M693.147887338916,265.5239730115701 L682.6999372040956,250.82389350105035 M682.6999372040956,250.82389350105035 L670.021024732818,236.72907021727696 M670.021024732818,236.72907021727696 L655.2161503193981,223.35061041172244 M655.2161503193981,223.35061041172244 L638.4066241316399,210.793610835501 M638.4066241316399,210.793610835501 L619.729081427537,199.15635980481179 M619.729081427537,199.15635980481179 L599.3342824991211,188.52967637515025 M599.3342824991211,188.52967637515025 L577.3859487952362,178.9962337160703 M577.3859487952362,178.9962337160703 L554.0593982613066,170.63001927975387 M554.0593982613066,170.63001927975387 L529.5402505368365,163.49579132092336 M529.5402505368365,163.49579132092336 L504.02294132003743,157.6486720683918 M504.02294132003743,157.6486720683918 L477.70926777757865,153.1337693816073 M477.70926777757865,153.1337693816073 L450.80691018193363,149.98583381963851 M450.80691018193363,149.98583381963851 L423.52788290656855,148.229099358601 M423.52788290656855,148.229099358601 L396.08690424803575,147.87708927478738 M396.08690424803575,147.87708927478738 L368.6999477814217,148.9324709840438 M368.6999477814217,148.9324709840438 L341.58254326758413,151.38716318315284 M341.58254326758413,151.38716318315284 L314.9482546228196,155.22227214730125 M314.9482546228196,155.22227214730125 L289.00714976997455,160.40829040589557 M289.00714976997455,160.40829040589557 L263.9641119380444,166.90523308687634 M263.9641119380444,166.90523308687634 L240.01747104440875,174.66295198597618 M240.01747104440875,174.66295198597618 L217.35745061348084,183.6214679145213 M217.35745061348084,183.6214679145213 L196.1646536323144,193.7113299710929 M196.1646536323144,193.7113299710929 L176.6087978096547,204.85415485035327 M176.6087978096547,204.85415485035327 L158.84728204211527,216.96312052173204 M158.84728204211527,216.96312052173204 L143.02392647025738,229.94357144530815 M143.02392647025738,229.94357144530815 L129.26787295883406,243.69374679100116 M129.26787295883406,243.69374679100116 L117.69238017414546,258.1054371828202 M117.69238017414546,258.1054371828202 L108.39391377790912,273.06481333491683 M108.39391377790912,273.06481333491683 L101.45127370317653,288.45330673949377 M101.45127370317653,288.45330673949377 L96.92475338707004,304.14841368226143 M96.92475338707004,304.14841368226143 L94.85561677625128,320.0247139440336 M94.85561677625128,320.0247139440336 L95.26548307211993,335.9548262367224 M95.26548307211993,335.9548262367224 L98.15619838205754,351.8103850185983 M98.15619838205754,351.8103850185983 L103.50943693984306,367.4631434659697 M103.50943693984306,367.4631434659697 L111.28678769144136,382.78595064387054 M111.28678769144136,382.78595064387054 L121.42997020598261,397.65384935032966 M121.42997020598261,397.65384935032966 L133.86103781605084,411.94513769045767 M133.86103781605084,411.94513769045767 L148.4829562918975,425.54239457369215 M148.4829562918975,425.54239457369215 L165.18029693956504,438.33349126993676 M165.18029693956504,438.33349126993676 L183.82003088236144,450.21261591970836 M560.3728203374993,282.4076486749841 L673.5706290055681,347.23327478337075 M402.9505261711603,373.2649737808857 L560.3728203374993,282.4076486749841 M516.1512903317997,438.59954844228673 L402.9505261711603,373.2649737808857 M673.5706290055681,347.23327478337075 L516.1512903317997,438.59954844228673 M335.48382867130067,282.4076486749841 L402.9505261711603,321.25964337228794 M267.791389377442,321.25964337228794 L335.48382867130067,282.4076486749841 M402.9505261711603,321.25964337228794 L335.25770858136707,360.24185367018606 M335.25770858136707,360.24185367018606 L267.791389377442,321.25964337228794 M402.9505261711603,261.7396034667799 L438.932764837752,282.4076486749841 M366.9682875045685,282.4076486749841 L402.9505261711603,261.7396034667799 M438.932764837752,282.4076486749841 L402.9505261711603,303.11254763592774 M402.9505261711603,303.11254763592774 L366.9682875045685,282.4076486749841 M358.3008514910645,112.98941814480634 L492.5469788340916,189.69025234644192 M106.42722452691038,256.57833903526824 L358.3008514910645,112.98941814480634 M492.5469788340916,189.69025234644192 L240.669063768418,334.2392127795894 M240.669063768418,334.2392127795894 L106.42722452691038,256.57833903526824 M560.3903506597896,277.202492867027 L673.6008490058845,342.0208265947224 M673.6008490058845,342.0208265947224 L673.5706290055681,347.23327478337075 M560.3903506597896,277.202492867027 L560.3728203374993,282.4076486749841 M402.9505261711603,368.0496085678786 L560.3903506597896,277.202492867027 M402.9505261711603,368.0496085678786 L402.9505261711603,373.2649737808857 M516.1639810004276,433.37689067819616 L402.9505261711603,368.0496085678786 M516.1639810004276,433.37689067819616 L516.1512903317997,438.59954844228673 M673.6008490058845,342.0208265947224 L516.1639810004276,433.37689067819616 M335.47631567603344,277.202492867027 L402.9505261711603,316.05011217755765 M402.9505261711603,316.05011217755765 L402.9505261711603,321.25964337228794 M335.47631567603344,277.202492867027 L335.48382867130067,282.4076486749841 M267.7763130654739,316.05011217755765 L335.47631567603344,277.202492867027 M267.7763130654739,316.05011217755765 L267.791389377442,321.25964337228794 M402.9505261711603,316.05011217755765 L335.250145138061,355.02794697181076 M335.250145138061,355.02794697181076 L335.25770858136707,360.24185367018606 M335.250145138061,355.02794697181076 L267.7763130654739,316.05011217755765 M402.9505261711603,256.5367811258072 L438.93677176856124,277.202492867027 M438.93677176856124,277.202492867027 L438.932764837752,282.4076486749841 M402.9505261711603,256.5367811258072 L402.9505261711603,261.7396034667799 M366.9642805737593,277.202492867027 L402.9505261711603,256.5367811258072 M366.9642805737593,277.202492867027 L366.9682875045685,282.4076486749841 M438.93677176856124,277.202492867027 L402.9505261711603,297.9050583072949 M402.9505261711603,297.9050583072949 L402.9505261711603,303.11254763592774 M402.9505261711603,297.9050583072949 L366.9642805737593,277.202492867027 M358.29591564376403,107.80351085031316 L492.5569163288412,184.49559656208265 M492.5569163288412,184.49559656208265 L492.5469788340916,189.69025234644192 M358.29591564376403,107.80351085031316 L358.3008514910645,112.98941814480634 M106.3942408448587,251.3761000513868 L358.29591564376403,107.80351085031316 M106.3942408448587,251.3761000513868 L106.42722452691038,256.57833903526824 M492.5569163288412,184.49559656208265 L240.65095199806052,329.0282230930548 M240.65095199806052,329.0282230930548 L240.669063768418,334.2392127795894 M240.65095199806052,329.0282230930548 L106.3942408448587,251.3761000513868" stroke="black"  stroke-width="4"  fill="red"/>
<path d="M402.9505261711603,316.05011217755765 L402.9505261711603,368.09318370062414 M335.250145138061,355.02794697181076 L335.3257035990354,407.1146421248888 M402.9505261711603,316.05011217755765 L335.250145138061,355.02794697181076 M402.9505261711603,368.09318370062414 L335.3257035990354,407.1146421248888 M267.7763130654739,316.05011217755765 L267.92692500208193,368.09318370062414 M335.250145138061,355.02794697181076 L267.7763130654739,316.05011217755765 M335.3257035990354,407.1146421248888 L267.92692500208193,368.09318370062414 M335.47631567603344,277.202492867027 L335.55137041518265,329.20194148912117 M267.7763130654739,316.05011217755765 L335.47631567603344,277.202492867027 M267.92692500208193,368.09318370062414 L335.55137041518265,329.20194148912117 M335.47631567603344,277.202492867027 L402.9505261711603,316.05011217755765 M335.55137041518265,329.20194148912117 L402.9505261711603,368.09318370062414" stroke="black"  stroke-width="4"  fill="red"/>
<path d="M492.5569163288412,184.49559656208265 L492.457640470036,236.39035748338523 M240.65095199806052,329.0282230930548 L240.83188797818664,381.08583578094414 M492.5569163288412,184.49559656208265 L240.65095199806052,329.0282230930548 M492.457640470036,236.39035748338523 L240.83188797818664,381.08583578094414 M106.3942408448587,251.3761000513868 L106.72374782855462,303.3464675003628 M240.65095199806052,329.0282230930548 L106.3942408448587,251.3761000513868 M240.83188797818664,381.08583578094414 L106.72374782855462,303.3464675003628 M358.29591564376403,107.80351085031316 L358.34522506351607,159.6110454056129 M106.3942408448587,251.3761000513868 L358.29591564376403,107.80351085031316 M106.72374782855462,303.3464675003628 L358.34522506351607,159.6110454056129 M358.29591564376403,107.80351085031316 L492.5569163288412,184.49559656208265 M358.34522506351607,159.6110454056129 L492.457640470036,236.39035748338523" stroke="black"  stroke-width="4"  fill="red"/>
<path d="M438.93677176856124,277.202492867027 L438.9207493974137,298.01616353099075 M402.9505261711603,297.9050583072949 L402.9505261711603,318.7280537376971 M438.93677176856124,277.202492867027 L402.9505261711603,297.9050583072949 M438.9207493974137,298.01616353099075 L402.9505261711603,318.7280537376971 M366.9642805737593,277.202492867027 L366.98030294490684,298.01616353099075 M402.9505261711603,297.9050583072949 L366.9642805737593,277.202492867027 M402.9505261711603,318.7280537376971 L366.98030294490684,298.01616353099075 M402.9505261711603,256.5367811258072 L402.9505261711603,277.3411272214495 M366.9642805737593,277.202492867027 L402.9505261711603,256.5367811258072 M366.98030294490684,298.01616353099075 L402.9505261711603,277.3411272214495 M402.9505261711603,256.5367811258072 L438.93677176856124,277.202492867027 M402.9505261711603,277.3411272214495 L438.9207493974137,298.01616353099075" stroke="black"  stroke-width="4"  fill="red"/>
<path d="M673.6008490058845,342.0208265947224 L673.2989523825329,394.0929805016215 M516.1639810004276,433.37689067819616 L516.0372022156245,485.5508323505944 M673.6008490058845,342.0208265947224 L516.1639810004276,433.37689067819616 M673.2989523825329,394.0929805016215 L516.0372022156245,485.5508323505944 M402.9505261711603,368.0496085678786 L402.9505261711603,420.15084496716594 M516.1639810004276,433.37689067819616 L402.9505261711603,368.0496085678786 M516.0372022156245,485.5508323505944 L402.9505261711603,420.15084496716594 M560.3903506597896,277.202492867027 L560.2152229351082,329.20194148912117 M402.9505261711603,368.0496085678786 L560.3903506597896,277.202492867027 M402.9505261711603,420.15084496716594 L560.2152229351082,329.20194148912117 M560.3903506597896,277.202492867027 L673.6008490058845,342.0208265947224 M560.2152229351082,329.20194148912117 L673.2989523825329,394.0929805016215" stroke="black"  stroke-width="4"  fill="red"/></svg>